Coordinates
version=1
nRows=65
nColumns=12
inDegrees=yes

Units are S.I. units (second, meters, Newtons, ...)
Angles are in degrees

endheader
time	SC_y	SC_z	SC_x	AC_y	AC_z	AC_x	GH_y	GH_z	GH_yy	EL_x	PS_y
       0.0              -31.04          27.82          37.36          42.14         -13.37         -5.861          22.04          75.67          125.7          75.26          78.69
   0.04049              -31.04          27.82          37.36          42.14         -13.36         -5.862          22.04          75.66          125.6          75.27          78.69
   0.08097              -31.04          27.81          37.36          42.15         -13.36         -5.863          22.05          75.66          125.6          75.27          78.69
    0.1215              -31.04          27.81          37.36          42.15         -13.36         -5.864          22.06          75.66          125.5          75.27          78.68
    0.1619              -31.03           27.8          37.36          42.15         -13.35         -5.865          22.07          75.66          125.5          75.27          78.68
    0.2024              -31.03           27.8          37.36          42.16         -13.35         -5.866          22.08          75.66          125.4          75.27          78.67
    0.2429              -31.03          27.79          37.36          42.16         -13.35         -5.868          22.09          75.65          125.4          75.27          78.67
    0.2834              -31.03          27.79          37.36          42.17         -13.34         -5.869           22.1          75.65          125.3          75.27          78.66
    0.3239              -31.02          27.78          37.36          42.18         -13.34         -5.871          22.11          75.65          125.2          75.28          78.65
    0.3644              -31.02          27.77          37.36          42.18         -13.33         -5.872          22.12          75.64          125.2          75.28          78.65
    0.4049              -31.02          27.77          37.36          42.19         -13.33         -5.874          22.13          75.64          125.1          75.28          78.64
    0.4454              -31.01          27.76          37.36           42.2         -13.32         -5.876          22.14          75.64          125.0          75.28          78.63
    0.4858              -31.01          27.75          37.36           42.2         -13.32         -5.878          22.16          75.63          124.9          75.29          78.62
    0.5263              -31.01          27.74          37.36          42.21         -13.31          -5.88          22.17          75.63          124.9          75.29          78.61
    0.5668               -31.0          27.73          37.36          42.22          -13.3         -5.883          22.19          75.62          124.8          75.29           78.6
    0.6073               -31.0          27.72          37.36          42.23          -13.3         -5.885          22.21          75.62          124.7          75.29          78.59
    0.6478              -30.99          27.71          37.35          42.24         -13.29         -5.888          22.23          75.61          124.5           75.3          78.58
    0.6883              -30.99           27.7          37.35          42.25         -13.28         -5.891          22.25          75.61          124.4           75.3          78.57
    0.7288              -30.98          27.69          37.35          42.27         -13.27         -5.894          22.27           75.6          124.3          75.31          78.55
    0.7692              -30.98          27.67          37.35          42.28         -13.26         -5.898           22.3          75.59          124.1          75.31          78.54
    0.8097              -30.97          27.66          37.35           42.3         -13.25         -5.902          22.32          75.58          124.0          75.32          78.52
    0.8502              -30.96          27.64          37.35          42.31         -13.23         -5.906          22.35          75.58          123.8          75.32           78.5
    0.8907              -30.95          27.62          37.35          42.33         -13.22         -5.911          22.39          75.57          123.6          75.33          78.48
    0.9312              -30.94           27.6          37.35          42.35         -13.21         -5.917          22.43          75.55          123.4          75.33          78.46
    0.9717              -30.93          27.57          37.35          42.38         -13.19         -5.923          22.47          75.54          123.1          75.34          78.43
     1.012              -30.92          27.55          37.34           42.4         -13.17         -5.929          22.51          75.53          122.8          75.35          78.41
     1.053              -30.91          27.52          37.34          42.43         -13.15         -5.937          22.57          75.51          122.5          75.36          78.38
     1.093              -30.89          27.48          37.34          42.46         -13.12         -5.945          22.63           75.5          122.2          75.37          78.34
     1.134              -30.88          27.44          37.34           42.5          -13.1         -5.955          22.69          75.48          121.8          75.38           78.3
     1.174              -30.86           27.4          37.34          42.54         -13.06         -5.966          22.77          75.46          121.3           75.4          78.25
     1.215              -30.83          27.35          37.33          42.59         -13.03         -5.978          22.85          75.43          120.8          75.41           78.2
     1.255              -30.81          27.29          37.33          42.64         -12.99         -5.992          22.95           75.4          120.2          75.43          78.14
     1.296              -30.78          27.23          37.33           42.7         -12.94         -6.008          23.07          75.37          119.6          75.45          78.07
     1.336              -30.75          27.15          37.32          42.78         -12.89         -6.027           23.2          75.33          118.8          75.47          77.99
     1.377              -30.71          27.06          37.32          42.86         -12.82          -6.05          23.35          75.29          117.9           75.5           77.9
     1.417              -30.66          26.96          37.31          42.96         -12.75         -6.076          23.54          75.24          116.8          75.53          77.79
     1.458              -30.61          26.83           37.3          43.08         -12.66         -6.107          23.75          75.17          115.5          75.57          77.66
     1.498              -30.54          26.68           37.3          43.23         -12.55         -6.145          24.01           75.1          114.0          75.62           77.5
     1.538              -30.46           26.5          37.29           43.4         -12.42          -6.19          24.33          75.01          112.1          75.67          77.31
     1.579              -30.36          26.28          37.27          43.61         -12.26         -6.245          24.71           74.9          109.8          75.74          77.08
     1.619              -30.24          26.01          37.26          43.87         -12.06         -6.313          25.19          74.76          107.0          75.83          76.79
      1.66              -30.09          25.67          37.24           44.2         -11.82         -6.398          25.78          74.59          103.5          75.93          76.44
       1.7              -29.91          25.24          37.21          44.61         -11.51         -6.505          26.53          74.37          99.12          76.07          75.99
     1.741              -29.67          24.69          37.18          45.13         -11.12         -6.641          27.48           74.1          93.52          76.24          75.41
     1.781              -29.36          23.99          37.14           45.8         -10.62         -6.815          28.69          73.75          86.35          76.45          74.68
     1.822              -28.97           23.1          37.09          46.65         -9.974         -7.039          30.25           73.3          77.14          76.73          73.74
     1.862              -28.46          21.95          37.03          47.75         -9.152         -7.325          32.24          72.73          65.38          77.09          72.54
     1.903              -27.83          20.51          36.95          49.12         -8.118         -7.684          34.74          72.01           50.6          77.54          71.03
     1.943              -27.06          18.76          36.85           50.8         -6.859         -8.121          37.79          71.14          32.58          78.08          69.19
     1.984              -26.17          16.73          36.73          52.74         -5.399         -8.628          41.32          70.12           11.7          78.71          67.06
     2.024               -25.2          14.53          36.61          54.85         -3.818         -9.178          45.15          69.02         -10.91           79.4          64.75
     2.065              -24.23          12.32          36.48          56.95         -2.237         -9.727          48.98          67.92         -33.53          80.08          62.45
     2.105              -23.34          10.29          36.37          58.89        -0.7765         -10.23          52.51           66.9         -54.41          80.71          60.31
     2.146              -22.57          8.537          36.27          60.57         0.4831         -10.67          55.56          66.02         -72.43          81.26          58.48
     2.186              -21.94          7.098          36.19          61.94          1.517         -11.03          58.06           65.3         -87.21          81.71          56.97
     2.227              -21.44          5.953          36.12          63.04          2.339         -11.32          60.05          64.73         -98.97          82.06          55.77
     2.267              -21.04          5.057          36.07          63.89          2.982         -11.54          61.61          64.28         -108.2          82.34          54.83
     2.308              -20.74          4.359          36.03          64.56          3.484         -11.71          62.83          63.93         -115.3          82.56          54.09
     2.348               -20.5          3.813           36.0          65.08          3.876         -11.85          63.77          63.66         -121.0          82.73          53.52
     2.389              -20.31          3.384          35.98          65.49          4.184         -11.96          64.52          63.45         -125.4          82.86          53.07
     2.429              -20.16          3.044          35.96          65.82          4.429         -12.04          65.11          63.28         -128.9          82.97          52.72
      2.47              -20.04           2.77          35.94          66.08          4.625         -12.11          65.59          63.14         -131.7          83.05          52.43
      2.51              -19.94          2.549          35.93          66.29          4.784         -12.17          65.97          63.03         -133.9          83.12           52.2
     2.551              -19.86          2.368          35.92          66.47          4.914         -12.21          66.29          62.94         -135.8          83.18          52.01
     2.591               -19.8          2.218          35.91          66.61          5.021         -12.25          66.55          62.86         -137.3          83.22          51.85
